<svg xmlns="http://www.w3.org/2000/svg" style="display: none;">
  <symbol id="arrow-left" viewBox="0 0 25 24">
    <path d="M12.4998 20.1598C7.98784 20.1598 4.33984 16.5118 4.33984 11.9998C4.33984 7.48784 7.98784 3.83984 12.4998 3.83984C17.0118 3.83984 20.6598 7.48784 20.6598 11.9998C20.6598 16.5118 17.0118 20.1598 12.4998 20.1598ZM12.4998 4.79984C8.51584 4.79984 5.29984 8.01584 5.29984 11.9998C5.29984 15.9838 8.51584 19.1998 12.4998 19.1998C16.4838 19.1998 19.6998 15.9838 19.6998 11.9998C19.6998 8.01584 16.4838 4.79984 12.4998 4.79984Z" fill="white"/>
    <path d="M12.6443 16.6558L7.98828 11.9998L12.6443 7.34375L13.3163 8.01575L9.33228 11.9998L13.3163 15.9838L12.6443 16.6558Z" fill="white"/>
    <path d="M8.66016 11.5195H16.8202V12.4795H8.66016V11.5195Z" fill="white"/>
  </symbol>
</svg>