<svg xmlns="http://www.w3.org/2000/svg">
<symbol viewBox="0 0 24 24.5" id="close">
<path d="M12 13.8896L1.70363 24.186C1.52044 24.3692 1.29539 24.4673 1.02846 24.4804C0.76153 24.4935 0.523389 24.3953 0.314033 24.186C0.104677 23.9766 0 23.745 0 23.4912C0 23.2373 0.104677 23.0057 0.314033 22.7964L10.6104 12.5L0.314033 2.20363C0.130847 2.02044 0.0327113 1.79539 0.0196266 1.52846C0.00654187 1.26153 0.104677 1.02339 0.314033 0.814033C0.523389 0.604677 0.754988 0.5 1.00883 0.5C1.26268 0.5 1.49428 0.604677 1.70363 0.814033L12 11.1104L22.2964 0.814033C22.4796 0.630847 22.7053 0.532711 22.9735 0.519627C23.2391 0.506542 23.4766 0.604677 23.686 0.814033C23.8953 1.02339 24 1.25499 24 1.50883C24 1.76268 23.8953 1.99428 23.686 2.20363L13.3896 12.5L23.686 22.7964C23.8692 22.9796 23.9673 23.2053 23.9804 23.4735C23.9935 23.7391 23.8953 23.9766 23.686 24.186C23.4766 24.3953 23.245 24.5 22.9912 24.5C22.7373 24.5 22.5057 24.3953 22.2964 24.186L12 13.8896Z" fill="#FFF2F2"/>
</symbol>
<symbol viewBox="0 0 33.916 29.805334" id="menu">
<g clip-path="url(#clip0_142_31671)">
<path d="M32.8888 29.8056H4.11103C3.83845 29.8056 3.57703 29.6973 3.38428 29.5045C3.19154 29.3118 3.08325 29.0504 3.08325 28.7778C3.08325 28.5052 3.19154 28.2438 3.38428 28.051C3.57703 27.8583 3.83845 27.75 4.11103 27.75H32.8888C33.1614 27.75 33.4228 27.8583 33.6156 28.051C33.8083 28.2438 33.9166 28.5052 33.9166 28.7778C33.9166 29.0504 33.8083 29.3118 33.6156 29.5045C33.4228 29.6973 33.1614 29.8056 32.8888 29.8056Z" fill="#FFF2F2"/>
<path d="M32.8888 19.5282H4.11103C3.83845 19.5282 3.57703 19.4199 3.38428 19.2272C3.19154 19.0344 3.08325 18.773 3.08325 18.5004C3.08325 18.2279 3.19154 17.9664 3.38428 17.7737C3.57703 17.5809 3.83845 17.4727 4.11103 17.4727H32.8888C33.1614 17.4727 33.4228 17.5809 33.6156 17.7737C33.8083 17.9664 33.9166 18.2279 33.9166 18.5004C33.9166 18.773 33.8083 19.0344 33.6156 19.2272C33.4228 19.4199 33.1614 19.5282 32.8888 19.5282Z" fill="#FFF2F2"/>
<path d="M32.8888 9.25087H4.11103C3.83845 9.25087 3.57703 9.14258 3.38428 8.94984C3.19154 8.75709 3.08325 8.49567 3.08325 8.22309C3.08325 7.95051 3.19154 7.68909 3.38428 7.49634C3.57703 7.3036 3.83845 7.19531 4.11103 7.19531H32.8888C33.1614 7.19531 33.4228 7.3036 33.6156 7.49634C33.8083 7.68909 33.9166 7.95051 33.9166 8.22309C33.9166 8.49567 33.8083 8.75709 33.6156 8.94984C33.4228 9.14258 33.1614 9.25087 32.8888 9.25087Z" fill="#FFF2F2"/>
</g>
<defs>
<clipPath id="clip0_142_31671">
<rect width="37" height="37" fill="white"/>
</clipPath>
</defs>
</symbol>
  <symbol id="arrow-left" viewBox="0 0 25 24">
    <path d="M12.4998 20.1598C7.98784 20.1598 4.33984 16.5118 4.33984 11.9998C4.33984 7.48784 7.98784 3.83984 12.4998 3.83984C17.0118 3.83984 20.6598 7.48784 20.6598 11.9998C20.6598 16.5118 17.0118 20.1598 12.4998 20.1598ZM12.4998 4.79984C8.51584 4.79984 5.29984 8.01584 5.29984 11.9998C5.29984 15.9838 8.51584 19.1998 12.4998 19.1998C16.4838 19.1998 19.6998 15.9838 19.6998 11.9998C19.6998 8.01584 16.4838 4.79984 12.4998 4.79984Z" fill="white"/>
    <path d="M12.6443 16.6558L7.98828 11.9998L12.6443 7.34375L13.3163 8.01575L9.33228 11.9998L13.3163 15.9838L12.6443 16.6558Z" fill="white"/>
    <path d="M8.66016 11.5195H16.8202V12.4795H8.66016V11.5195Z" fill="white"/>
</symbol></svg>