<svg width="24" height="25" viewBox="0 0 24 25" fill="none" xmlns="http://www.w3.org/2000/svg">
<path d="M12 13.8896L1.70363 24.186C1.52044 24.3692 1.29539 24.4673 1.02846 24.4804C0.76153 24.4935 0.523389 24.3953 0.314033 24.186C0.104677 23.9766 0 23.745 0 23.4912C0 23.2373 0.104677 23.0057 0.314033 22.7964L10.6104 12.5L0.314033 2.20363C0.130847 2.02044 0.0327113 1.79539 0.0196266 1.52846C0.00654187 1.26153 0.104677 1.02339 0.314033 0.814033C0.523389 0.604677 0.754988 0.5 1.00883 0.5C1.26268 0.5 1.49428 0.604677 1.70363 0.814033L12 11.1104L22.2964 0.814033C22.4796 0.630847 22.7053 0.532711 22.9735 0.519627C23.2391 0.506542 23.4766 0.604677 23.686 0.814033C23.8953 1.02339 24 1.25499 24 1.50883C24 1.76268 23.8953 1.99428 23.686 2.20363L13.3896 12.5L23.686 22.7964C23.8692 22.9796 23.9673 23.2053 23.9804 23.4735C23.9935 23.7391 23.8953 23.9766 23.686 24.186C23.4766 24.3953 23.245 24.5 22.9912 24.5C22.7373 24.5 22.5057 24.3953 22.2964 24.186L12 13.8896Z" fill="#FFF2F2"/>
</svg>
