<svg width="37" height="37" viewBox="0 0 37 37" fill="none" xmlns="http://www.w3.org/2000/svg">
<g clip-path="url(#clip0_142_31671)">
<path d="M32.8888 29.8056H4.11103C3.83845 29.8056 3.57703 29.6973 3.38428 29.5045C3.19154 29.3118 3.08325 29.0504 3.08325 28.7778C3.08325 28.5052 3.19154 28.2438 3.38428 28.051C3.57703 27.8583 3.83845 27.75 4.11103 27.75H32.8888C33.1614 27.75 33.4228 27.8583 33.6156 28.051C33.8083 28.2438 33.9166 28.5052 33.9166 28.7778C33.9166 29.0504 33.8083 29.3118 33.6156 29.5045C33.4228 29.6973 33.1614 29.8056 32.8888 29.8056Z" fill="#FFF2F2"/>
<path d="M32.8888 19.5282H4.11103C3.83845 19.5282 3.57703 19.4199 3.38428 19.2272C3.19154 19.0344 3.08325 18.773 3.08325 18.5004C3.08325 18.2279 3.19154 17.9664 3.38428 17.7737C3.57703 17.5809 3.83845 17.4727 4.11103 17.4727H32.8888C33.1614 17.4727 33.4228 17.5809 33.6156 17.7737C33.8083 17.9664 33.9166 18.2279 33.9166 18.5004C33.9166 18.773 33.8083 19.0344 33.6156 19.2272C33.4228 19.4199 33.1614 19.5282 32.8888 19.5282Z" fill="#FFF2F2"/>
<path d="M32.8888 9.25087H4.11103C3.83845 9.25087 3.57703 9.14258 3.38428 8.94984C3.19154 8.75709 3.08325 8.49567 3.08325 8.22309C3.08325 7.95051 3.19154 7.68909 3.38428 7.49634C3.57703 7.3036 3.83845 7.19531 4.11103 7.19531H32.8888C33.1614 7.19531 33.4228 7.3036 33.6156 7.49634C33.8083 7.68909 33.9166 7.95051 33.9166 8.22309C33.9166 8.49567 33.8083 8.75709 33.6156 8.94984C33.4228 9.14258 33.1614 9.25087 32.8888 9.25087Z" fill="#FFF2F2"/>
</g>
<defs>
<clipPath id="clip0_142_31671">
<rect width="37" height="37" fill="white"/>
</clipPath>
</defs>
</svg>
